<svg xmlns="http://www.w3.org/2000/svg" width="200" height="200" viewBox="0 0 200 200">
    <g xmlns="http://www.w3.org/2000/svg" transform="translate(0.000000,200.000000) scale(0.100000,-0.100000)" fill="#00514e" stroke="none">
        <path d="M852 1760 c-209 -44 -316 -201 -315 -460 2 -282 135 -559 314 -650 207 -106 681 102 863 379 85 130 104 243 57 348 -58 132 -241 233 -421 233 -59 0 -69 3 -91 26 -34 38 -116 88 -174 108 -61 20 -175 28 -233 16z m243 -135 c67 -35 75 -47 41 -63 -44 -20 -107 -84 -133 -135 -48 -97 -41 -194 20 -264 107 -122 280 -60 337 121 13 40 9 174 -5 209 -7 17 -4 18 41 12 118 -18 233 -83 271 -155 51 -96 16 -213 -101 -338 -153 -162 -401 -286 -571 -286 -83 0 -113 14 -179 81 -56 56 -125 192 -152 298 -27 103 -26 301 1 374 47 126 138 183 286 178 72 -2 94 -7 144 -32z m161 -176 c35 -96 -12 -219 -94 -244 -17 -5 -29 1 -52 24 -66 65 -23 189 85 245 38 20 46 17 61 -25z"/>
        <path d="M342 960 c-65 -33 -128 -94 -138 -136 -5 -20 -1 -32 20 -52 79 -80 275 22 276 143 0 79 -57 95 -158 45z"/>
        <path d="M522 725 c-53 -23 -141 -113 -154 -158 -11 -38 -11 -41 16 -63 33 -29 91 -32 142 -8 45 22 100 84 113 128 10 40 0 94 -21 108 -19 12 -59 9 -96 -7z"/>
        <path d="M723 538 c-48 -51 -75 -115 -81 -189 -4 -64 -3 -68 22 -84 41 -27 87 -13 135 41 67 76 77 172 24 234 -32 39 -62 38 -100 -2z"/>
        <path d="M1031 551 c-60 -60 -42 -286 25 -312 49 -18 104 28 125 104 21 80 -15 182 -75 211 -43 20 -52 20 -75 -3z"/>
    </g>
</svg>